# This file uses centimeters as units for non-parametric coordinates.

mtllib box2.mtl
g default
v 10.106389 12.175570 0.859384
v 11.974103 12.469804 2.773674
v 10.119754 9.524667 2.787816
v 10.099411 12.473035 2.812330
v 10.114937 12.433126 2.780934
v 10.106389 12.215518 0.856070
v 10.105225 12.455579 2.881495
v 10.106061 9.489570 2.801509
v 11.971022 12.509771 2.774225
v 10.031143 12.506778 2.808004
v 10.106342 12.410701 2.882812
v 10.106061 9.569308 2.881251
v 10.026319 9.569308 2.801509
v 10.024467 12.411253 2.800785
v 13.905907 12.215518 0.856070
v 13.897533 12.475591 2.881495
v 13.906235 9.489570 2.801509
v 12.026936 12.661619 2.812894
v 13.980967 12.485509 2.808715
v 13.905954 12.410701 2.882812
v 13.906235 9.569308 2.881251
v 13.985977 9.569308 2.801509
v 13.987829 12.411253 2.800785
v 13.909095 12.453142 2.770071
v 13.905907 12.175570 0.859384
v 13.892542 9.524667 2.787816
v 12.021185 12.621947 2.812894
v 13.932564 12.471862 2.818676
v 10.106389 12.215518 -0.876014
v 10.105225 12.455579 -2.901440
v 10.106061 9.489570 -2.821454
v 11.971022 12.509771 -2.794170
v 10.031143 12.506778 -2.827948
v 10.106342 12.410701 -2.902756
v 10.106061 9.569308 -2.901196
v 10.026319 9.569308 -2.821454
v 10.024467 12.411253 -2.820729
v 10.114937 12.433126 -2.800879
v 10.106389 12.175570 -0.879329
v 10.119754 9.524667 -2.807760
v 11.974103 12.469804 -2.793618
v 10.099411 12.473035 -2.832274
v 13.897533 12.475591 -2.901440
v 13.905907 12.215518 -0.876014
v 13.906235 9.489570 -2.821454
v 12.026936 12.661619 -2.832839
v 13.980967 12.485509 -2.828659
v 13.906235 9.569308 -2.901196
v 13.905954 12.410701 -2.902756
v 13.987829 12.411253 -2.820729
v 13.985977 9.569308 -2.821454
v 13.905907 12.175570 -0.879329
v 13.909095 12.453142 -2.790015
v 13.892542 9.524667 -2.807760
v 12.021185 12.621947 -2.832839
v 13.932564 12.471862 -2.838619
vt 0.076329 0.399828
vt 0.658544 0.018822
vt 0.891129 0.399828
vt 0.076329 0.257705
vt 0.891129 0.253077
vt 0.666436 0.018822
vt 0.076329 0.253077
vt 0.072927 0.257705
vt 0.891129 0.390304
vt 0.076329 0.390304
vt 0.072927 0.396363
vt 0.072927 0.390304
vt 0.252904 0.897261
vt 0.502427 0.545392
vt 0.254795 0.897261
vt 0.254795 0.774396
vt 0.076329 0.505878
vt 0.072927 0.399828
vt 0.891129 0.505878
vt 0.893286 0.399828
vt 0.072927 0.398255
vt 0.251663 0.399828
vt 0.251663 0.257705
vt 0.251663 0.253077
vt 0.244008 0.257705
vt 0.251663 0.390304
vt 0.244008 0.399828
vt 0.244008 0.390304
vt 0.913219 0.897262
vt 0.913204 0.774397
vt 0.918935 0.897262
vt 0.246951 0.402550
vt 0.251663 0.505878
vt 0.249862 0.402550
vt 0.658501 0.399828
vt 0.658501 0.253077
vt 0.666436 0.399828
vt 0.658501 0.257705
vt 0.666436 0.253077
vt 0.666436 0.390304
vt 0.658501 0.390304
vt 0.503903 0.897261
vt 0.502774 0.774396
vt 0.500301 0.897261
vt 0.658501 0.505878
vt 0.660687 0.402550
vt 0.666436 0.505878
vt 0.663948 0.402550
vt 0.488528 0.399828
vt 0.488528 0.257705
vt 0.488528 0.253077
vt 0.502158 0.257705
vt 0.488528 0.390304
vt 0.502158 0.253077
vt 0.502158 0.390304
vt 0.502158 0.399828
vt 0.684193 0.897261
vt 0.684193 0.774396
vt 0.679830 0.774396
vt 0.679459 0.897261
vt 0.499182 0.402550
vt 0.488528 0.505878
vt 0.496372 0.402550
vt 0.891129 0.498995
vt 0.666436 0.498994
vt 0.663948 0.498994
vt 0.500301 0.978198
vt 0.254795 0.978198
vt 0.893286 0.498995
vt 0.249862 0.498995
vt 0.913218 0.978198
vt 0.684193 0.978198
vt 0.496372 0.498995
vt 0.488528 0.498995
vt 0.251663 0.498995
vt 0.244008 0.505878
vt 0.076735 0.897261
vt 0.680317 0.545385
vt 0.502158 0.505878
vt 0.502158 0.018822
vt 0.244008 0.253077
vt 0.076329 0.498995
vt 0.072927 0.498995
vt 0.252904 0.978198
vt 0.076735 0.978198
vt 0.246951 0.498995
vt 0.244008 0.498995
vt 0.502158 0.498994
vt 0.499182 0.498994
vt 0.679459 0.978198
vt 0.503903 0.978198
vt 0.660687 0.498994
vt 0.658501 0.498995
vn -0.002616 0.992460 -0.122539
vn -0.002616 0.992460 -0.122539
vn -0.002616 0.992460 -0.122539
vn -0.002616 0.992460 -0.122539
vn 0.000000 -0.000549 1.000000
vn 0.000000 -0.000549 1.000000
vn 0.000000 -0.000549 1.000000
vn 0.000000 -0.000549 1.000000
vn -1.000000 -0.000652 0.000000
vn -1.000000 -0.000652 0.000000
vn -1.000000 -0.000652 0.000000
vn -1.000000 -0.000652 0.000000
vn 0.000000 -0.707126 0.707087
vn 0.000000 -0.707126 0.707087
vn 0.000000 -0.707126 0.707087
vn 0.000000 -0.707126 0.707087
vn -0.707441 -0.000300 0.706773
vn -0.707441 -0.000300 0.706773
vn -0.707441 -0.000300 0.706773
vn -0.707441 -0.000300 0.706773
vn -0.000063 0.023971 0.999713
vn -0.000063 0.023971 0.999713
vn -0.000063 0.023971 0.999713
vn -0.000063 0.023971 0.999713
vn -0.577342 -0.577367 0.577342
vn -0.577342 -0.577367 0.577342
vn -0.577342 -0.577367 0.577342
vn -0.706400 -0.001786 0.707811
vn -0.706400 -0.001786 0.707811
vn -0.706400 -0.001786 0.707811
vn -0.706400 -0.001786 0.707811
vn 0.002808 -0.990388 0.138288
vn 0.002808 -0.990388 0.138288
vn 0.002808 -0.990388 0.138288
vn 0.002808 -0.990388 0.138288
vn -0.897640 -0.002529 -0.440723
vn -0.897640 -0.002529 -0.440723
vn -0.897640 -0.002529 -0.440723
vn -0.001424 -0.004216 -0.999990
vn -0.001424 -0.004216 -0.999990
vn -0.001424 -0.004216 -0.999990
vn -0.001424 -0.004216 -0.999990
vn 0.707442 -0.000300 0.706772
vn 0.707442 -0.000300 0.706772
vn 0.707442 -0.000300 0.706772
vn 0.707442 -0.000300 0.706772
vn 0.577342 -0.577367 0.577342
vn 0.577342 -0.577367 0.577342
vn 0.577342 -0.577367 0.577342
vn 0.681626 0.040146 0.730599
vn 0.681626 0.040146 0.730599
vn 0.681626 0.040146 0.730599
vn 0.681626 0.040146 0.730599
vn 0.901649 -0.007717 -0.432400
vn 0.901649 -0.007717 -0.432400
vn 0.901649 -0.007717 -0.432400
vn -0.002616 0.992460 0.122539
vn -0.002616 0.992460 0.122539
vn -0.002616 0.992460 0.122539
vn -0.002616 0.992460 0.122539
vn 0.000000 -1.000000 0.000000
vn 0.000000 -1.000000 0.000000
vn 0.000000 -1.000000 0.000000
vn 0.000000 -1.000000 0.000000
vn 0.000000 -0.000549 -1.000000
vn 0.000000 -0.000549 -1.000000
vn 0.000000 -0.000549 -1.000000
vn 0.000000 -0.000549 -1.000000
vn -0.707093 -0.707121 0.000000
vn -0.707093 -0.707121 0.000000
vn -0.707093 -0.707121 0.000000
vn -0.707093 -0.707121 0.000000
vn 0.000000 -0.707126 -0.707087
vn 0.000000 -0.707126 -0.707087
vn 0.000000 -0.707126 -0.707087
vn 0.000000 -0.707126 -0.707087
vn -0.707439 -0.000300 -0.706774
vn -0.707439 -0.000300 -0.706774
vn -0.707439 -0.000300 -0.706774
vn -0.707439 -0.000300 -0.706774
vn -0.997567 0.069714 0.000000
vn -0.997567 0.069714 0.000000
vn -0.997567 0.069714 0.000000
vn -0.997567 0.069714 0.000000
vn -0.000063 0.023958 -0.999713
vn -0.000063 0.023958 -0.999713
vn -0.000063 0.023958 -0.999713
vn -0.000063 0.023958 -0.999713
vn -0.577342 -0.577367 -0.577342
vn -0.577342 -0.577367 -0.577342
vn -0.577342 -0.577367 -0.577342
vn -0.706403 -0.001786 -0.707808
vn -0.706403 -0.001786 -0.707808
vn -0.706403 -0.001786 -0.707808
vn -0.706403 -0.001786 -0.707808
vn 0.002808 -0.990388 -0.138288
vn 0.002808 -0.990388 -0.138288
vn 0.002808 -0.990388 -0.138288
vn 0.002808 -0.990388 -0.138288
vn 0.000000 1.000000 0.000000
vn 0.000000 1.000000 0.000000
vn 0.000000 1.000000 0.000000
vn 0.000000 1.000000 0.000000
vn 0.999976 0.006900 0.000000
vn 0.999976 0.006900 0.000000
vn 0.999976 0.006900 0.000000
vn 0.999976 0.006900 0.000000
vn -0.001424 -0.004216 0.999990
vn -0.001424 -0.004216 0.999990
vn -0.001424 -0.004216 0.999990
vn -0.001424 -0.004216 0.999990
vn -0.897647 -0.002529 0.440708
vn -0.897647 -0.002529 0.440708
vn -0.897647 -0.002529 0.440708
vn 1.000000 -0.000652 0.000000
vn 1.000000 -0.000652 0.000000
vn 1.000000 -0.000652 0.000000
vn 1.000000 -0.000652 0.000000
vn 0.707093 -0.707121 0.000000
vn 0.707093 -0.707121 0.000000
vn 0.707093 -0.707121 0.000000
vn 0.707093 -0.707121 0.000000
vn 0.707439 -0.000300 -0.706774
vn 0.707439 -0.000300 -0.706774
vn 0.707439 -0.000300 -0.706774
vn 0.707439 -0.000300 -0.706774
vn 0.995757 0.092025 0.000000
vn 0.995757 0.092025 0.000000
vn 0.995757 0.092025 0.000000
vn 0.995757 0.092025 0.000000
vn 0.577342 -0.577367 -0.577342
vn 0.577342 -0.577367 -0.577342
vn 0.577342 -0.577367 -0.577342
vn 0.681631 0.040143 -0.730594
vn 0.681631 0.040143 -0.730594
vn 0.681631 0.040143 -0.730594
vn 0.681631 0.040143 -0.730594
vn 0.901653 -0.007717 0.432391
vn 0.901653 -0.007717 0.432391
vn 0.901653 -0.007717 0.432391
vn -0.999908 0.013578 0.000000
vn -0.999908 0.013578 0.000000
vn -0.999908 0.013578 0.000000
vn -0.999908 0.013578 0.000000
vn -0.001543 0.999999 0.000000
vn -0.001543 0.999999 0.000000
vn -0.001543 0.999999 0.000000
vn -0.001543 0.999999 0.000000
vn -0.001724 -0.999999 0.000000
vn -0.001724 -0.999999 0.000000
vn -0.001724 -0.999999 0.000000
vn -0.001724 -0.999999 0.000000
vn -0.078281 -0.996931 0.000000
vn -0.078281 -0.996931 0.000000
vn -0.078281 -0.996931 0.000000
vn -0.078281 -0.996931 0.000000
vn 0.089763 0.995963 0.000000
vn 0.089763 0.995963 0.000000
vn 0.089763 0.995963 0.000000
vn 0.089763 0.995963 0.000000
vn 0.013931 0.169923 -0.985359
vn 0.013931 0.169923 -0.985359
vn 0.013931 0.169923 -0.985359
vn 0.013931 0.169922 -0.985359
vn -0.298798 0.928197 0.221743
vn -0.298798 0.928197 0.221743
vn -0.298798 0.928197 0.221743
vn -0.298798 0.928197 0.221743
vn 0.971986 0.233044 0.030551
vn 0.971986 0.233044 0.030551
vn 0.971986 0.233044 0.030551
vn 0.971986 0.233044 0.030551
vn 0.000000 -0.082686 0.996576
vn 0.000000 -0.082686 0.996576
vn 0.000000 -0.082686 0.996576
vn 0.000000 -0.082686 0.996576
vn -0.980744 -0.193528 -0.026234
vn -0.980744 -0.193528 -0.026234
vn -0.980744 -0.193528 -0.026234
vn -0.980744 -0.193528 -0.026234
vn 0.677565 0.724603 -0.125922
vn 0.677565 0.724603 -0.125922
vn 0.677565 0.724603 -0.125922
vn 0.677565 0.724603 -0.125922
vn 0.018944 0.069417 -0.997408
vn 0.018944 0.069417 -0.997408
vn 0.018944 0.069417 -0.997408
vn 0.018944 0.069417 -0.997408
vn 0.997041 0.076872 0.000000
vn 0.997041 0.076872 0.000000
vn 0.997041 0.076872 0.000000
vn 0.997041 0.076872 0.000000
vn 0.018944 0.069418 0.997408
vn 0.018944 0.069418 0.997408
vn 0.018944 0.069418 0.997408
vn 0.018944 0.069418 0.997408
vn 0.677562 0.724604 0.125931
vn 0.677562 0.724604 0.125931
vn 0.677562 0.724604 0.125931
vn 0.677562 0.724604 0.125931
vn -0.980744 -0.193529 0.026234
vn -0.980744 -0.193529 0.026234
vn -0.980744 -0.193529 0.026234
vn -0.980744 -0.193529 0.026234
vn 0.000000 -0.082683 -0.996576
vn 0.000000 -0.082683 -0.996576
vn 0.000000 -0.082683 -0.996576
vn 0.000000 -0.082683 -0.996576
vn 0.971989 0.233034 -0.030551
vn 0.971989 0.233034 -0.030551
vn 0.971988 0.233034 -0.030551
vn 0.971989 0.233034 -0.030551
vn -0.298794 0.928200 -0.221737
vn -0.298794 0.928200 -0.221737
vn -0.298794 0.928200 -0.221737
vn -0.298794 0.928200 -0.221737
vn 0.013933 0.169931 0.985357
vn 0.013933 0.169931 0.985357
vn 0.013933 0.169931 0.985357
vn 0.013933 0.169931 0.985357
vn -0.989654 0.143477 0.000000
vn -0.989654 0.143477 0.000000
vn -0.989654 0.143477 0.000000
vn -0.989654 0.143477 0.000000
s off
g box01
usemtl initialShadingGroup
f 7/1/1 16/27/2 15/87/3 6/82/4
f 11/10/5 12/4/6 21/25/7 20/28/8
f 13/5/9 14/9/10 37/40/11 36/39/12
f 12/4/13 8/7/14 17/81/15 21/25/16
f 13/8/17 12/4/18 11/10/19 14/12/20
f 7/1/21 11/10/22 20/28/23 16/27/24
f 13/8/25 8/7/26 12/4/27
f 10/11/28 14/12/29 11/10/30 7/1/31
f 24/77/32 5/13/33 1/84/34 25/85/35
f 4/15/36 5/13/37 3/16/38
f 3/14/39 5/13/40 24/77/41 26/78/42
f 21/25/43 22/23/44 23/26/45 20/28/46
f 22/23/47 21/25/48 17/24/49
f 19/22/50 16/27/51 20/28/52 23/26/53
f 24/31/54 28/29/55 26/30/56
f 43/56/57 30/35/58 29/93/59 44/88/60
f 8/2/61 31/36/62 45/54/63 17/80/64
f 35/38/65 34/41/66 49/55/67 48/52/68
f 36/39/69 31/36/70 8/2/71 13/6/72
f 31/36/73 35/38/74 48/52/75 45/54/76
f 35/38/77 36/39/78 37/40/79 34/41/80
f 33/37/81 37/40/82 14/9/83 10/3/84
f 34/41/85 30/35/86 43/56/87 49/55/88
f 36/39/89 35/38/90 31/36/91
f 33/37/92 30/35/93 34/41/94 37/40/95
f 38/42/96 53/60/97 52/90/98 39/91/99
f 40/43/100 3/14/101 26/78/102 54/59/103
f 4/15/104 3/16/105 40/43/106 42/44/107
f 38/42/108 40/43/109 54/59/110 53/60/111
f 38/42/112 42/44/113 40/43/114
f 51/50/115 50/53/116 23/26/117 22/23/118
f 45/51/119 51/50/120 22/23/121 17/24/122
f 51/50/123 48/52/124 49/55/125 50/53/126
f 50/53/127 47/49/128 19/22/129 23/26/130
f 51/50/131 45/54/132 48/52/133
f 47/49/134 50/53/135 49/55/136 43/56/137
f 56/57/138 53/60/139 54/59/140
f 26/30/141 28/29/142 56/57/143 54/58/144
f 9/64/145 32/65/146 33/37/147 10/3/148
f 41/67/149 2/68/150 4/15/151 42/44/152
f 27/71/153 55/72/154 56/57/155 28/29/156
f 46/74/157 18/75/158 19/22/159 47/49/160
f 56/63/161 55/73/162 46/74/163 47/49/164
f 47/49/165 43/56/166 53/61/167 56/63/168
f 52/89/169 53/61/170 43/56/171 44/88/172
f 44/88/173 29/93/174 39/45/175 52/79/176
f 38/46/177 39/92/178 29/93/179 30/35/180
f 30/35/181 33/37/182 42/48/183 38/46/184
f 41/66/185 42/48/186 33/37/187 32/65/188
f 32/65/189 9/64/190 2/19/191 41/47/192
f 4/20/193 2/69/194 9/64/195 10/3/196
f 10/11/197 7/1/198 5/18/199 4/21/200
f 1/83/201 5/18/202 7/1/203 6/82/204
f 6/82/205 15/87/206 25/76/207 1/17/208
f 24/32/209 25/86/210 15/87/211 16/27/212
f 16/27/213 19/22/214 28/34/215 24/32/216
f 27/70/217 28/34/218 19/22/219 18/75/220
f 18/75/221 46/74/222 55/62/223 27/33/224
