# This file uses centimeters as units for non-parametric coordinates.

mtllib box6.mtl
g default
v 23.328333 11.856733 0.859384
v 25.196046 12.150968 2.773674
v 23.341697 9.205831 2.787816
v 23.321354 12.154199 2.812330
v 23.336880 12.114290 2.780934
v 23.328333 11.896682 0.856070
v 23.327169 12.136743 2.881495
v 23.328004 9.170733 2.801509
v 25.192965 12.190935 2.774225
v 23.253085 12.187942 2.808004
v 23.328004 9.250472 2.881251
v 23.248262 9.250472 2.801509
v 27.127849 11.896682 0.856070
v 27.119476 12.156754 2.881495
v 27.128179 9.170733 2.801509
v 25.234899 12.173301 2.812894
v 27.202910 12.166673 2.808715
v 27.128179 9.250472 2.881251
v 27.207919 9.250472 2.801509
v 27.131038 12.134306 2.770071
v 27.127849 11.856733 0.859384
v 27.114486 9.205831 2.787816
v 25.232574 12.133282 2.812894
v 27.154506 12.153026 2.818676
v 23.328333 11.896682 -0.876014
v 23.327169 12.136743 -2.901440
v 23.328004 9.170733 -2.821454
v 25.192965 12.190935 -2.794170
v 23.253085 12.187942 -2.827948
v 23.328004 9.250472 -2.901196
v 23.248262 9.250472 -2.821454
v 23.336880 12.114290 -2.800879
v 23.328333 11.856733 -0.879329
v 23.341697 9.205831 -2.807760
v 25.196046 12.150968 -2.793618
v 23.321354 12.154199 -2.832274
v 27.119476 12.156754 -2.901440
v 27.127849 11.896682 -0.876014
v 27.128179 9.170733 -2.821454
v 25.234899 12.173301 -2.832839
v 27.202910 12.166673 -2.828659
v 27.128179 9.250472 -2.901196
v 27.207919 9.250472 -2.821454
v 27.127849 11.856733 -0.879329
v 27.131038 12.134306 -2.790015
v 27.114486 9.205831 -2.807760
v 25.232574 12.133282 -2.832839
v 27.154506 12.153026 -2.838619
vt 0.072927 0.257705
vt 0.076329 0.257705
vt 0.076329 0.253077
vt 0.072927 0.396363
vt 0.076329 0.399828
vt 0.254795 0.774396
vt 0.254795 0.897261
vt 0.252904 0.897261
vt 0.891129 0.399828
vt 0.251663 0.257705
vt 0.244008 0.257705
vt 0.251663 0.253077
vt 0.251663 0.399828
vt 0.244008 0.399828
vt 0.913204 0.774397
vt 0.913219 0.897262
vt 0.918935 0.897262
vt 0.666436 0.399828
vt 0.666436 0.253077
vt 0.658501 0.253077
vt 0.658501 0.257705
vt 0.658501 0.399828
vt 0.500301 0.897261
vt 0.502774 0.774396
vt 0.503903 0.897261
vt 0.666436 0.498994
vt 0.488528 0.399828
vt 0.488528 0.257705
vt 0.488528 0.253077
vt 0.502158 0.257705
vt 0.502158 0.253077
vt 0.502158 0.399828
vt 0.684193 0.897261
vt 0.684193 0.774396
vt 0.679830 0.774396
vt 0.679459 0.897261
vt 0.488528 0.498995
vt 0.658501 0.498995
vt 0.502427 0.545392
vt 0.076329 0.498995
vt 0.244008 0.498995
vt 0.076735 0.897261
vt 0.680317 0.545385
vt 0.502158 0.498994
vt 0.244008 0.253077
vt 0.502158 0.018822
vt 0.658544 0.018822
vt 0.666436 0.018822
vt 0.891129 0.253077
vt 0.891129 0.498995
vt 0.251663 0.498995
vt 0.913218 0.978198
vt 0.684193 0.978198
vt 0.500301 0.978198
vt 0.254795 0.978198
vt 0.252904 0.978198
vt 0.076735 0.978198
vt 0.679459 0.978198
vt 0.503903 0.978198
vt 0.663948 0.402550
vt 0.660687 0.402550
vt 0.660687 0.498994
vt 0.658501 0.505878
vt 0.502158 0.505878
vt 0.499182 0.498994
vt 0.499182 0.402550
vt 0.496372 0.402550
vt 0.496372 0.498995
vt 0.488528 0.505878
vt 0.251663 0.505878
vt 0.249862 0.498995
vt 0.249862 0.402550
vt 0.246951 0.402550
vt 0.246951 0.498995
vt 0.244008 0.505878
vt 0.076329 0.505878
vt 0.072927 0.498995
vt 0.072927 0.399828
vt 0.072927 0.398255
vt 0.893286 0.399828
vt 0.893286 0.498995
vt 0.891129 0.505878
vt 0.666436 0.505878
vt 0.663948 0.498994
vn -0.002616 0.992460 -0.122539
vn -0.002616 0.992460 -0.122539
vn -0.002616 0.992460 -0.122539
vn -0.002616 0.992460 -0.122539
vn 0.000000 -0.707117 0.707096
vn 0.000000 -0.707117 0.707096
vn 0.000000 -0.707117 0.707096
vn 0.000000 -0.707117 0.707096
vn 0.000000 -0.000084 1.000000
vn 0.000000 -0.000084 1.000000
vn 0.000000 -0.000084 1.000000
vn 0.000000 -0.000084 1.000000
vn -0.577347 -0.577358 0.577347
vn -0.577347 -0.577357 0.577347
vn -0.577347 -0.577358 0.577347
vn -0.705802 -0.000337 0.708409
vn -0.705802 -0.000337 0.708409
vn -0.705802 -0.000337 0.708409
vn -0.705802 -0.000337 0.708409
vn 0.002808 -0.990388 0.138289
vn 0.002808 -0.990388 0.138289
vn 0.002808 -0.990388 0.138289
vn 0.002808 -0.990388 0.138289
vn -0.897649 -0.002530 -0.440703
vn -0.897649 -0.002530 -0.440703
vn -0.897649 -0.002530 -0.440703
vn -0.001424 -0.004216 -0.999990
vn -0.001424 -0.004216 -0.999990
vn -0.001424 -0.004216 -0.999990
vn -0.001424 -0.004216 -0.999990
vn 0.000000 -0.082683 -0.996576
vn 0.000000 -0.082683 -0.996576
vn 0.000000 -0.082683 -0.996576
vn 0.000000 -0.082683 -0.996576
vn 0.677575 0.724597 0.125905
vn 0.677575 0.724597 0.125905
vn 0.677575 0.724597 0.125905
vn 0.677575 0.724597 0.125905
vn 0.577347 -0.577358 0.577347
vn 0.577347 -0.577358 0.577347
vn 0.577347 -0.577358 0.577347
vn 0.682839 0.000673 0.730568
vn 0.682839 0.000673 0.730568
vn 0.682839 0.000673 0.730568
vn 0.682839 0.000673 0.730568
vn 0.901654 -0.007717 -0.432390
vn 0.901654 -0.007717 -0.432390
vn 0.901654 -0.007717 -0.432390
vn 0.971998 0.232994 -0.030551
vn 0.971998 0.232994 -0.030551
vn 0.971998 0.232994 -0.030551
vn 0.971998 0.232994 -0.030551
vn -0.001023 0.183428 0.983033
vn -0.001023 0.183428 0.983033
vn -0.001023 0.183428 0.983033
vn -0.001023 0.183428 0.983033
vn -0.298793 0.928213 -0.221684
vn -0.298793 0.928213 -0.221684
vn -0.298793 0.928213 -0.221684
vn -0.298793 0.928213 -0.221684
vn -0.002616 0.992460 0.122539
vn -0.002616 0.992460 0.122538
vn -0.002616 0.992460 0.122538
vn -0.002616 0.992460 0.122539
vn -0.707094 -0.707119 0.000000
vn -0.707094 -0.707119 0.000000
vn -0.707094 -0.707119 0.000000
vn -0.707094 -0.707119 0.000000
vn 0.000000 -0.707117 -0.707096
vn 0.000000 -0.707117 -0.707096
vn 0.000000 -0.707117 -0.707096
vn 0.000000 -0.707117 -0.707096
vn -0.999999 0.001642 0.000000
vn -0.999999 0.001642 0.000000
vn -0.999999 0.001642 0.000000
vn -0.999999 0.001642 0.000000
vn 0.000000 -0.000084 -1.000000
vn 0.000000 -0.000084 -1.000000
vn 0.000000 -0.000084 -1.000000
vn 0.000000 -0.000084 -1.000000
vn -0.577347 -0.577358 -0.577347
vn -0.577347 -0.577358 -0.577347
vn -0.577347 -0.577357 -0.577347
vn -0.705800 -0.000337 -0.708411
vn -0.705800 -0.000337 -0.708411
vn -0.705800 -0.000337 -0.708411
vn -0.705800 -0.000337 -0.708411
vn 0.002808 -0.990388 -0.138289
vn 0.002808 -0.990388 -0.138289
vn 0.002808 -0.990388 -0.138289
vn 0.002808 -0.990388 -0.138289
vn -0.001424 -0.004216 0.999990
vn -0.001424 -0.004216 0.999990
vn -0.001424 -0.004216 0.999990
vn -0.001424 -0.004216 0.999990
vn -0.897657 -0.002530 0.440689
vn -0.897657 -0.002530 0.440689
vn -0.897657 -0.002530 0.440689
vn 0.999976 0.006899 0.000000
vn 0.999976 0.006899 0.000000
vn 0.999976 0.006899 0.000000
vn 0.999976 0.006899 0.000000
vn 0.000000 -0.082686 0.996576
vn 0.000000 -0.082686 0.996576
vn 0.000000 -0.082686 0.996576
vn 0.000000 -0.082686 0.996576
vn -0.980746 -0.193520 -0.026231
vn -0.980746 -0.193520 -0.026231
vn -0.980746 -0.193520 -0.026231
vn -0.980746 -0.193520 -0.026231
vn 0.997043 0.076848 0.000000
vn 0.997043 0.076848 0.000000
vn 0.997043 0.076848 0.000000
vn 0.997043 0.076848 0.000000
vn 0.677570 0.724600 -0.125914
vn 0.677570 0.724600 -0.125914
vn 0.677570 0.724600 -0.125914
vn 0.677570 0.724600 -0.125914
vn 0.003368 0.999994 0.000000
vn 0.003368 0.999994 0.000000
vn 0.003368 0.999994 0.000000
vn 0.003368 0.999994 0.000000
vn 0.707097 -0.707116 0.000000
vn 0.707097 -0.707116 0.000000
vn 0.707097 -0.707116 0.000000
vn 0.707097 -0.707116 0.000000
vn 0.999999 0.001718 0.000000
vn 0.999999 0.001718 0.000000
vn 0.999999 0.001718 0.000000
vn 0.999999 0.001718 0.000000
vn 0.577347 -0.577358 -0.577347
vn 0.577347 -0.577358 -0.577347
vn 0.577347 -0.577358 -0.577347
vn 0.682838 0.000673 -0.730570
vn 0.682838 0.000673 -0.730570
vn 0.682838 0.000673 -0.730570
vn 0.682838 0.000673 -0.730570
vn 0.010272 -0.999947 0.000000
vn 0.010272 -0.999947 0.000000
vn 0.010272 -0.999947 0.000000
vn 0.010272 -0.999947 0.000000
vn -0.999908 0.013578 0.000000
vn -0.999908 0.013578 0.000000
vn -0.999908 0.013578 0.000000
vn -0.999908 0.013578 0.000000
vn 0.901658 -0.007717 0.432380
vn 0.901658 -0.007717 0.432380
vn 0.901658 -0.007717 0.432380
vn -0.998316 0.058017 0.000000
vn -0.998316 0.058017 0.000000
vn -0.998316 0.058017 0.000000
vn -0.998316 0.058017 0.000000
vn -0.001023 0.183426 -0.983033
vn -0.001023 0.183426 -0.983033
vn -0.001023 0.183426 -0.983033
vn -0.001023 0.183426 -0.983033
vn -0.298807 0.928207 0.221690
vn -0.298807 0.928207 0.221690
vn -0.298807 0.928207 0.221690
vn -0.298807 0.928207 0.221690
vn 0.000000 1.000000 0.000000
vn 0.000000 1.000000 0.000000
vn 0.000000 1.000000 0.000000
vn 0.000000 1.000000 0.000000
vn 0.000000 -1.000000 0.000000
vn 0.000000 -1.000000 0.000000
vn 0.000000 -1.000000 0.000000
vn 0.000000 -1.000000 0.000000
vn 0.018944 0.069418 -0.997408
vn 0.018944 0.069418 -0.997408
vn 0.018944 0.069418 -0.997408
vn 0.018944 0.069418 -0.997408
vn -0.001724 -0.999999 0.000000
vn -0.001724 -0.999999 0.000000
vn -0.001724 -0.999999 0.000000
vn -0.001724 -0.999999 0.000000
vn 0.018944 0.069418 0.997408
vn 0.018944 0.069418 0.997408
vn 0.018944 0.069418 0.997408
vn 0.018944 0.069418 0.997408
vn -0.001543 0.999999 0.000000
vn -0.001543 0.999999 0.000000
vn -0.001543 0.999999 0.000000
vn -0.001543 0.999999 0.000000
vn -0.980747 -0.193511 0.026231
vn -0.980747 -0.193511 0.026231
vn -0.980747 -0.193511 0.026231
vn -0.980747 -0.193511 0.026231
vn 0.971983 0.233055 0.030550
vn 0.971984 0.233055 0.030550
vn 0.971983 0.233055 0.030550
vn 0.971983 0.233055 0.030550
s off
g box03
usemtl initialShadingGroup
f 7/5/1 14/14/2 13/41/3 6/40/4
f 15/45/5 18/11/6 11/2/7 8/3/8
f 11/2/9 18/11/10 14/14/11 7/5/12
f 12/1/13 8/3/14 11/2/15
f 7/5/16 10/4/17 12/1/18 11/2/19
f 20/42/20 5/8/21 1/56/22 21/57/23
f 4/7/24 5/8/25 3/6/26
f 3/39/27 5/8/28 20/42/29 22/43/30
f 6/40/31 13/41/32 21/75/33 1/76/34
f 10/4/35 7/5/36 5/78/37 4/79/38
f 19/10/39 18/11/40 15/12/41
f 17/13/42 14/14/43 18/11/44 19/10/45
f 20/17/46 24/16/47 22/15/48
f 13/41/49 14/14/50 20/73/51 21/74/52
f 17/13/53 16/51/54 23/71/55 24/72/56
f 14/14/57 17/13/58 24/72/59 20/73/60
f 37/32/61 26/22/62 25/38/63 38/44/64
f 31/19/65 27/20/66 8/47/67 12/48/68
f 30/21/69 42/30/70 39/31/71 27/20/72
f 29/18/73 31/19/74 12/49/75 10/9/76
f 26/22/77 37/32/78 42/30/79 30/21/80
f 31/19/81 30/21/82 27/20/83
f 29/18/84 26/22/85 30/21/86 31/19/87
f 32/25/88 45/36/89 44/58/90 33/59/91
f 32/25/92 34/24/93 46/35/94 45/36/95
f 32/25/96 36/23/97 34/24/98
f 34/24/99 36/23/100 4/7/101 3/6/102
f 38/44/103 25/38/104 33/63/105 44/64/106
f 25/38/107 26/22/108 32/61/109 33/62/110
f 28/26/111 9/50/112 2/82/113 35/83/114
f 26/22/115 29/18/116 36/60/117 32/61/118
f 17/13/119 41/27/120 40/37/121 16/51/122
f 39/29/123 43/28/124 19/10/125 15/12/126
f 43/28/127 41/27/128 17/13/129 19/10/130
f 43/28/131 39/31/132 42/30/133
f 37/32/134 41/27/135 43/28/136 42/30/137
f 48/33/138 24/16/139 23/52/140 47/53/141
f 48/33/142 46/34/143 22/15/144 24/16/145
f 48/33/146 45/36/147 46/35/148
f 16/51/149 40/37/150 47/69/151 23/70/152
f 40/37/153 41/27/154 48/67/155 47/68/156
f 41/27/157 37/32/158 45/66/159 48/67/160
f 46/35/161 34/24/162 3/39/163 22/43/164
f 27/20/165 39/31/166 15/46/167 8/47/168
f 29/18/169 28/26/170 35/84/171 36/60/172
f 35/54/173 2/55/174 4/7/175 36/23/176
f 9/50/177 10/9/178 4/80/179 2/81/180
f 9/50/181 28/26/182 29/18/183 10/9/184
f 7/5/185 6/40/186 1/77/187 5/78/188
f 37/32/189 38/44/190 44/65/191 45/66/192
