# This file uses centimeters as units for non-parametric coordinates.

mtllib box7.mtl
g default
v 30.496889 12.503239 -1.018760
v 30.541861 12.611815 1.003770
v 32.433762 11.744444 2.793944
v 32.433762 11.744444 -2.846152
v 30.555225 8.934836 2.787816
v 30.520447 11.885244 -2.802506
v 30.555225 11.829987 -2.846152
v 30.496889 11.829987 -2.787816
v 30.516439 11.866649 -2.777352
v 30.555225 8.934836 -2.787816
v 30.521433 11.893019 2.812330
v 30.500473 11.829987 2.801925
v 30.555225 11.829987 2.846152
v 30.568716 11.890316 2.850609
v 30.541533 8.899737 -2.801509
v 30.496889 12.540517 -1.033500
v 30.526642 11.899758 -2.879237
v 30.541861 12.648240 1.020506
v 30.550234 11.925379 2.881495
v 32.434176 11.784529 -2.846152
v 30.454321 11.895254 -2.757383
v 30.541533 8.899737 2.801509
v 32.434176 11.784529 2.793944
v 30.466614 11.916945 2.808003
v 30.541533 8.979479 2.881251
v 30.461790 8.979479 2.801509
v 30.541533 8.979479 -2.881251
v 30.461790 8.979479 -2.801509
v 34.341705 8.899737 -2.801509
v 34.386349 12.540517 -1.033500
v 34.356596 11.899758 -2.879237
v 34.341377 12.648240 1.020506
v 34.333004 11.925379 2.881495
v 32.454432 11.673533 -2.732335
v 34.429129 11.918273 -2.749689
v 34.341705 8.899737 2.801509
v 32.454432 11.651945 2.812894
v 34.416437 11.895676 2.808715
v 34.341705 8.979479 2.881251
v 34.421448 8.979479 2.801509
v 34.341705 8.979479 -2.881251
v 34.435370 8.979479 -2.801509
v 34.328013 8.934836 -2.787816
v 34.386349 12.503239 -1.018760
v 34.354307 11.893400 -2.802506
v 34.344566 11.890316 2.839746
v 34.341377 12.611815 1.003770
v 34.385496 11.903619 -2.726144
v 32.457180 11.633542 -2.732335
v 34.328013 8.934836 2.787816
v 32.457180 11.611953 2.812894
v 34.368034 11.882030 2.818675
v 34.328013 11.829987 2.846152
v 34.386349 11.829987 2.787816
v 34.328013 11.829987 -2.846152
v 34.386349 11.829987 -2.787816
vt 0.658501 0.498995
vt 0.076329 0.399828
vt 0.076329 0.257705
vt 0.658501 0.257705
vt 0.076329 0.253077
vt 0.072927 0.257705
vt 0.658501 0.399828
vt 0.666436 0.253077
vt 0.658501 0.253077
vt 0.666436 0.399828
vt 0.072927 0.396363
vt 0.503903 0.978198
vt 0.252904 0.897261
vt 0.252904 0.893207
vt 0.503903 0.893207
vt 0.502427 0.545392
vt 0.254795 0.893207
vt 0.503903 0.897261
vt 0.500301 0.893207
vt 0.502774 0.774396
vt 0.254795 0.774396
vt 0.500301 0.897261
vt 0.254795 0.897261
vt 0.658501 0.505878
vt 0.660687 0.498994
vt 0.076329 0.505878
vt 0.072927 0.399828
vt 0.663948 0.402550
vt 0.893286 0.399828
vt 0.660687 0.402550
vt 0.072927 0.398255
vt 0.502158 0.498994
vt 0.244008 0.399828
vt 0.244008 0.257705
vt 0.502158 0.257705
vt 0.244008 0.253077
vt 0.251663 0.257705
vt 0.502158 0.399828
vt 0.488528 0.257705
vt 0.502158 0.253077
vt 0.251663 0.253077
vt 0.488528 0.399828
vt 0.251663 0.399828
vt 0.679459 0.978198
vt 0.076735 0.897261
vt 0.076735 0.893207
vt 0.679459 0.893207
vt 0.680317 0.545385
vt 0.918935 0.893207
vt 0.913215 0.893207
vt 0.679459 0.897261
vt 0.684194 0.893207
vt 0.679830 0.774396
vt 0.913204 0.774397
vt 0.684193 0.897261
vt 0.913219 0.897262
vt 0.918935 0.897262
vt 0.502158 0.505878
vt 0.499182 0.498994
vt 0.244008 0.505878
vt 0.246951 0.402550
vt 0.496372 0.402550
vt 0.249862 0.402550
vt 0.499182 0.402550
vt 0.502158 0.018822
vt 0.658544 0.018822
vt 0.666436 0.018822
vt 0.891129 0.253077
vt 0.891129 0.399828
vt 0.891129 0.505878
vt 0.251663 0.505878
vt 0.488528 0.505878
vt 0.684193 0.774396
vt 0.666436 0.505878
vt 0.488528 0.253077
vt 0.251663 0.498995
vt 0.249862 0.498995
vt 0.913218 0.978198
vt 0.684193 0.978198
vt 0.496372 0.498995
vt 0.488528 0.498995
vt 0.666436 0.498994
vt 0.663948 0.498994
vt 0.500301 0.978198
vt 0.254795 0.978198
vt 0.893286 0.498995
vt 0.891129 0.498995
vt 0.076329 0.498995
vt 0.072927 0.498995
vt 0.252904 0.978198
vt 0.076735 0.978198
vt 0.246951 0.498995
vt 0.244008 0.498995
vn -0.707107 -0.707106 0.000000
vn -0.707107 -0.707106 0.000000
vn -0.707107 -0.707106 0.000000
vn -0.707107 -0.707106 0.000000
vn -0.999999 -0.000461 0.001102
vn -0.999999 -0.000461 0.001102
vn -0.999999 -0.000461 0.001102
vn -0.999999 -0.000461 0.001102
vn -0.577343 -0.577354 0.577354
vn -0.577343 -0.577354 0.577354
vn -0.577343 -0.577354 0.577354
vn -0.798368 0.001702 -0.602168
vn -0.798368 0.001702 -0.602168
vn -0.798368 0.001702 -0.602168
vn -0.798368 0.001702 -0.602168
vn -0.577343 -0.577354 -0.577354
vn -0.577343 -0.577354 -0.577354
vn -0.577343 -0.577354 -0.577354
vn -0.684156 0.000737 0.729335
vn -0.684156 0.000737 0.729335
vn -0.684156 0.000737 0.729335
vn -0.684156 0.000737 0.729335
vn 0.999809 0.019528 -0.000321
vn 0.999809 0.019528 -0.000321
vn 0.999809 0.019528 -0.000321
vn 0.999809 0.019528 -0.000321
vn 0.628295 0.015673 -0.777817
vn 0.628295 0.015673 -0.777817
vn 0.628295 0.015673 -0.777817
vn 0.707039 0.014247 0.707032
vn 0.707039 0.014247 0.707032
vn 0.707039 0.014247 0.707031
vn 0.926415 -0.376503 0.000177
vn 0.926415 -0.376503 0.000177
vn 0.926415 -0.376503 0.000177
vn 0.926415 -0.376503 0.000177
vn 0.806188 -0.195227 0.558523
vn 0.806188 -0.195227 0.558523
vn 0.806188 -0.195227 0.558523
vn 0.806188 -0.195227 0.558523
vn 0.625387 -0.081164 -0.776082
vn 0.625387 -0.081164 -0.776082
vn 0.625387 -0.081164 -0.776082
vn 0.625387 -0.081164 -0.776082
vn -0.997715 0.057936 -0.034755
vn -0.997715 0.057936 -0.034755
vn -0.997715 0.057936 -0.034755
vn -0.997715 0.057936 -0.034755
vn 0.999947 -0.010326 0.000000
vn 0.999947 -0.010326 0.000000
vn 0.999947 -0.010326 0.000000
vn 0.999947 -0.010326 0.000000
vn -0.023523 0.259529 -0.965449
vn -0.023523 0.259529 -0.965449
vn -0.023523 0.259529 -0.965449
vn -0.023523 0.259529 -0.965449
vn 0.352105 0.879205 0.320969
vn 0.352105 0.879205 0.320969
vn 0.352105 0.879205 0.320969
vn 0.352105 0.879205 0.320969
vn 0.412375 0.747144 -0.521271
vn 0.412375 0.747144 -0.521271
vn 0.412375 0.747144 -0.521271
vn 0.412375 0.747144 -0.521271
vn 0.000000 -1.000000 0.000000
vn 0.000000 -1.000000 0.000000
vn 0.000000 -1.000000 0.000000
vn 0.000000 -1.000000 0.000000
vn 0.000000 0.944693 -0.327956
vn 0.000000 0.944693 -0.327956
vn 0.000000 0.944693 -0.327956
vn 0.000000 0.944693 -0.327956
vn -0.123115 0.992385 0.003808
vn -0.123115 0.992385 0.003808
vn -0.123115 0.992385 0.003808
vn -0.123115 0.992385 0.003808
vn 0.676938 -0.736040 0.000841
vn 0.676938 -0.736040 0.000841
vn 0.676938 -0.736040 0.000841
vn 0.676938 -0.736040 0.000841
vn 0.000000 -0.707113 0.707101
vn 0.000000 -0.707113 0.707101
vn 0.000000 -0.707113 0.707101
vn 0.000000 -0.707113 0.707101
vn 0.000000 0.000690 -1.000000
vn 0.000000 0.000690 -1.000000
vn 0.000000 0.000690 -1.000000
vn 0.000000 0.000690 -1.000000
vn 0.999995 0.001898 0.002388
vn 0.999995 0.001898 0.002388
vn 0.999995 0.001898 0.002388
vn 0.999995 0.001898 0.002388
vn 0.000000 -0.707113 -0.707101
vn 0.000000 -0.707113 -0.707101
vn 0.000000 -0.707113 -0.707101
vn 0.000000 -0.707113 -0.707101
vn 0.000000 -0.000083 1.000000
vn 0.000000 -0.000083 1.000000
vn 0.000000 -0.000083 1.000000
vn 0.000000 -0.000083 1.000000
vn 0.577343 -0.577354 0.577354
vn 0.577343 -0.577354 0.577354
vn 0.577343 -0.577354 0.577354
vn 0.782915 0.004560 -0.622112
vn 0.782915 0.004560 -0.622112
vn 0.782915 0.004560 -0.622112
vn 0.782915 0.004560 -0.622112
vn 0.515747 -0.605812 -0.605803
vn 0.515747 -0.605812 -0.605803
vn 0.515747 -0.605812 -0.605803
vn 0.682921 0.000669 0.730492
vn 0.682921 0.000669 0.730492
vn 0.682921 0.000669 0.730492
vn 0.682921 0.000669 0.730492
vn 0.000000 1.000000 0.000000
vn 0.000000 1.000000 0.000000
vn 0.000000 1.000000 0.000000
vn 0.000000 1.000000 0.000000
vn 0.000999 -0.945564 0.325435
vn 0.000999 -0.945564 0.325435
vn 0.000999 -0.945564 0.325435
vn 0.000999 -0.945564 0.325435
vn 0.139333 -0.990239 -0.003636
vn 0.139333 -0.990239 -0.003636
vn 0.139333 -0.990239 -0.003636
vn 0.139333 -0.990239 -0.003636
vn -0.999797 0.020146 0.000000
vn -0.999797 0.020146 0.000000
vn -0.999797 0.020146 0.000000
vn -0.999797 0.020146 0.000000
vn 0.000000 0.020146 0.999797
vn 0.000000 0.020146 0.999797
vn 0.000000 0.020146 0.999797
vn 0.000000 0.020146 0.999797
vn 0.000000 0.020146 -0.999797
vn 0.000000 0.020146 -0.999797
vn 0.000000 0.020146 -0.999797
vn 0.000000 0.020146 -0.999797
vn -0.707039 0.014247 -0.707032
vn -0.707039 0.014247 -0.707032
vn -0.707039 0.014247 -0.707031
vn 0.000635 -0.592508 0.805564
vn 0.000635 -0.592508 0.805565
vn 0.000635 -0.592508 0.805565
vn 0.000635 -0.592508 0.805565
vn -0.707039 0.014247 0.707032
vn -0.707039 0.014247 0.707032
vn -0.707039 0.014247 0.707031
vn -0.988773 -0.149412 -0.001843
vn -0.988773 -0.149412 -0.001843
vn -0.988773 -0.149412 -0.001843
vn -0.988773 -0.149412 -0.001843
vn -0.001439 -0.015801 -0.999874
vn -0.001439 -0.015801 -0.999874
vn -0.001439 -0.015801 -0.999874
vn -0.001439 -0.015801 -0.999874
vn -0.791452 -0.273236 0.546760
vn -0.791452 -0.273236 0.546760
vn -0.791452 -0.273236 0.546760
vn -0.791452 -0.273236 0.546759
vn -0.681492 0.145384 -0.717239
vn -0.681492 0.145384 -0.717239
vn -0.681492 0.145384 -0.717239
vn -0.681492 0.145384 -0.717239
vn 0.000000 0.367687 0.929950
vn 0.000000 0.367687 0.929950
vn 0.000000 0.367687 0.929950
vn 0.000000 0.367687 0.929950
vn 0.000000 0.417510 -0.908673
vn 0.000000 0.417510 -0.908673
vn 0.000000 0.417510 -0.908673
vn 0.000000 0.417510 -0.908673
vn -0.997646 -0.068576 -0.000267
vn -0.997646 -0.068576 -0.000267
vn -0.997646 -0.068576 -0.000267
vn -0.997646 -0.068576 -0.000267
vn -0.027626 0.205187 0.978333
vn -0.027626 0.205187 0.978333
vn -0.027626 0.205187 0.978333
vn -0.027626 0.205187 0.978333
vn -0.340926 0.939210 0.040672
vn -0.340926 0.939210 0.040672
vn -0.340926 0.939210 0.040672
vn -0.340926 0.939210 0.040672
vn -0.333109 0.678972 -0.654245
vn -0.333109 0.678971 -0.654245
vn -0.333109 0.678971 -0.654245
vn -0.333109 0.678971 -0.654245
vn 0.053996 -0.428915 -0.901730
vn 0.053996 -0.428915 -0.901730
vn 0.053996 -0.428915 -0.901730
vn 0.053996 -0.428915 -0.901730
vn -0.070476 -0.997511 0.002374
vn -0.070476 -0.997511 0.002374
vn -0.070476 -0.997511 0.002374
vn -0.070476 -0.997511 0.002374
vn 0.014080 0.079331 0.996749
vn 0.014080 0.079331 0.996749
vn 0.014080 0.079331 0.996749
vn 0.014080 0.079331 0.996749
vn 0.061427 0.998110 -0.002000
vn 0.061427 0.998110 -0.002000
vn 0.061427 0.998110 -0.002000
vn 0.061427 0.998110 -0.002000
vn -0.976140 -0.205314 -0.070690
vn -0.976140 -0.205314 -0.070690
vn -0.976140 -0.205314 -0.070690
vn -0.976140 -0.205314 -0.070690
vn -0.000523 -0.931081 -0.364812
vn -0.000523 -0.931081 -0.364812
vn -0.000523 -0.931081 -0.364812
vn -0.000523 -0.931081 -0.364812
vn 0.991503 0.120692 0.048531
vn 0.991503 0.120692 0.048531
vn 0.991503 0.120692 0.048531
vn 0.991503 0.120692 0.048531
vn 0.000000 0.932150 0.362073
vn 0.000000 0.932150 0.362073
vn 0.000000 0.932150 0.362073
vn 0.000000 0.932150 0.362073
vn 0.998692 -0.051132 0.000608
vn 0.998692 -0.051132 0.000608
vn 0.998692 -0.051132 0.000608
vn 0.998692 -0.051132 0.000608
s off
g box04
usemtl initialShadingGroup
f 22/66/1 26/67/2 28/8/3 15/9/4
f 28/8/5 26/68/6 24/69/7 21/10/8
f 26/6/9 22/5/10 25/3/11
f 21/10/12 17/7/13 27/4/14 28/8/15
f 15/9/16 28/8/17 27/4/18
f 19/2/19 24/11/20 26/6/21 25/3/22
f 12/17/23 5/21/24 10/20/25 8/19/26
f 12/17/27 13/14/28 5/21/29
f 7/15/30 8/19/31 10/20/32
f 8/19/33 9/22/34 11/23/35 12/17/36
f 6/18/37 9/22/38 8/19/39 7/15/40
f 11/23/41 14/13/42 13/14/43 12/17/44
f 6/30/45 1/25/46 16/1/47 17/7/48
f 3/70/49 4/74/50 20/82/51 23/87/52
f 4/83/53 9/28/54 21/10/55 20/82/56
f 9/28/57 6/30/58 17/7/59 21/10/60
f 14/27/61 11/31/62 24/11/63 19/2/64
f 15/9/65 29/40/66 36/65/67 22/66/68
f 16/1/69 30/32/70 31/38/71 17/7/72
f 38/43/73 35/42/74 34/81/75 37/76/76
f 40/37/77 36/41/78 29/75/79 42/39/80
f 36/36/81 39/34/82 25/3/83 22/5/84
f 31/38/85 41/35/86 27/4/87 17/7/88
f 40/37/89 42/39/90 35/42/91 38/43/92
f 41/35/93 29/40/94 15/9/95 27/4/96
f 39/34/97 33/33/98 19/2/99 25/3/100
f 40/37/101 39/34/102 36/41/103
f 31/38/104 35/42/105 42/39/106 41/35/107
f 29/40/108 41/35/109 42/39/110
f 38/43/111 33/33/112 39/34/113 40/37/114
f 5/16/115 50/48/116 43/53/117 10/20/118
f 44/44/119 1/12/120 6/18/121 45/51/122
f 48/55/123 52/56/124 51/78/125 49/79/126
f 50/54/127 54/50/128 56/52/129 43/73/130
f 43/53/131 55/47/132 7/15/133 10/20/134
f 53/46/135 50/48/136 5/16/137 13/14/138
f 53/49/139 54/50/140 50/54/141
f 55/47/142 45/51/143 6/18/144 7/15/145
f 56/52/146 55/47/147 43/53/148
f 48/55/149 56/52/150 54/50/151 52/56/152
f 46/45/153 53/46/154 13/14/155 14/13/156
f 45/51/157 55/47/158 56/52/159 48/55/160
f 52/56/161 54/50/162 53/49/163 46/57/164
f 1/24/165 44/58/166 30/32/167 16/1/168
f 47/60/169 2/26/170 18/88/171 32/93/172
f 49/72/173 51/71/174 37/76/175 34/81/176
f 51/77/177 52/63/178 38/43/179 37/76/180
f 45/64/181 48/62/182 35/42/183 31/38/184
f 52/63/185 46/61/186 33/33/187 38/43/188
f 48/62/189 49/80/190 34/81/191 35/42/192
f 4/84/193 3/85/194 11/23/195 9/22/196
f 11/29/197 3/86/198 23/87/199 24/69/200
f 23/87/201 20/82/202 21/10/203 24/69/204
f 2/89/205 14/27/206 19/2/207 18/88/208
f 2/90/209 47/91/210 46/45/211 14/13/212
f 46/61/213 47/92/214 32/93/215 33/33/216
f 32/93/217 18/88/218 19/2/219 33/33/220
f 44/59/221 45/64/222 31/38/223 30/32/224
