# This file uses centimeters as units for non-parametric coordinates.

mtllib box8.mtl
g default
v 32.112213 2.940805 -0.900364
v 32.157196 2.943060 0.845712
v 32.170563 0.086862 2.787815
v 32.135773 3.037270 -2.802507
v 32.109482 3.065987 -2.839960
v 32.170563 0.086862 -2.787815
v 32.109482 3.065987 2.846151
v 32.154007 3.042343 2.869690
v 32.156860 0.051763 -2.801510
v 32.112213 2.980888 -0.900758
v 32.141968 3.051785 -2.897406
v 32.157196 2.983139 0.846438
v 32.165573 3.077404 2.908186
v 32.076309 3.099133 -2.829660
v 32.156860 0.051763 2.801510
v 32.075073 3.098124 2.857952
v 32.156860 0.131505 2.881250
v 32.077118 0.131505 2.801510
v 32.156860 0.131505 -2.881250
v 32.077118 0.131505 -2.801510
v 35.957031 0.051763 -2.801510
v 36.001679 2.980888 -0.900758
v 35.971924 3.051785 -2.897406
v 35.956711 2.983139 0.846438
v 35.948334 3.077404 2.908186
v 34.202820 3.701366 -2.846151
v 36.060562 3.070299 -2.829660
v 35.957031 0.051763 2.801510
v 34.202820 3.701366 2.846151
v 36.061798 3.069290 2.857952
v 35.957031 0.131505 2.881250
v 36.036774 0.131505 2.801510
v 35.957031 0.131505 -2.881250
v 36.036774 0.131505 -2.801510
v 35.943344 0.086862 -2.787815
v 36.001679 2.940805 -0.900364
v 35.978119 3.037270 -2.802507
v 35.959900 3.042343 2.869690
v 35.956711 2.943060 0.845712
v 36.004410 3.065987 -2.839960
v 34.187607 3.664280 -2.846151
v 35.943344 0.086862 2.787815
v 34.187607 3.664280 2.846151
v 36.004410 3.065987 2.846151
vt 0.666436 0.399828
vt 0.666436 0.253077
vt 0.072927 0.257705
vt 0.076329 0.257705
vt 0.658501 0.257705
vt 0.658501 0.253077
vt 0.076329 0.253077
vt 0.658501 0.399828
vt 0.072927 0.396363
vt 0.076329 0.399828
vt 0.500301 0.897261
vt 0.502774 0.774396
vt 0.254795 0.774396
vt 0.503903 0.897261
vt 0.254795 0.897261
vt 0.252904 0.897261
vt 0.660687 0.498994
vt 0.072927 0.399828
vt 0.663948 0.402550
vt 0.660687 0.402550
vt 0.072927 0.398255
vt 0.488528 0.399828
vt 0.488528 0.257705
vt 0.251663 0.257705
vt 0.244008 0.257705
vt 0.502158 0.257705
vt 0.488528 0.253077
vt 0.251663 0.253077
vt 0.502158 0.399828
vt 0.502158 0.253077
vt 0.251663 0.399828
vt 0.244008 0.399828
vt 0.684193 0.897261
vt 0.684193 0.774396
vt 0.913204 0.774397
vt 0.679459 0.897261
vt 0.679830 0.774396
vt 0.913219 0.897262
vt 0.918935 0.897262
vt 0.499182 0.498994
vt 0.246951 0.402550
vt 0.488528 0.505878
vt 0.496372 0.402550
vt 0.249862 0.402550
vt 0.499182 0.402550
vt 0.658501 0.498995
vt 0.658501 0.505878
vt 0.503903 0.978198
vt 0.502427 0.545392
vt 0.076329 0.505878
vt 0.244008 0.505878
vt 0.076735 0.897261
vt 0.680317 0.545385
vt 0.679459 0.978198
vt 0.502158 0.505878
vt 0.502158 0.498994
vt 0.244008 0.253077
vt 0.502158 0.018822
vt 0.658544 0.018822
vt 0.666436 0.018822
vt 0.891129 0.253077
vt 0.891129 0.399828
vt 0.251663 0.505878
vt 0.488528 0.498995
vt 0.251663 0.498995
vt 0.249862 0.498995
vt 0.913218 0.978198
vt 0.684193 0.978198
vt 0.496372 0.498995
vt 0.076329 0.498995
vt 0.244008 0.498995
vt 0.072927 0.498995
vt 0.252904 0.978198
vt 0.076735 0.978198
vt 0.246951 0.498995
vt 0.002071 0.000000
vt 1.000000 0.000000
vt 0.998192 0.008229
vt 0.000000 0.008261
vn 0.000000 0.998956 -0.045673
vn 0.000000 0.998956 -0.045673
vn 0.000000 0.998957 -0.045673
vn 0.000000 0.998957 -0.045673
vn 0.000000 -0.707100 0.707114
vn 0.000000 -0.707100 0.707114
vn 0.000000 -0.707100 0.707114
vn 0.000000 -0.707100 0.707114
vn 0.000000 -0.005532 -0.999985
vn 0.000000 -0.005532 -0.999985
vn 0.000000 -0.005532 -0.999985
vn 0.000000 -0.005532 -0.999985
vn -0.707104 -0.707110 0.000000
vn -0.707104 -0.707110 0.000000
vn -0.707104 -0.707110 0.000000
vn -0.707104 -0.707110 0.000000
vn 0.000000 -0.707100 -0.707114
vn 0.000000 -0.707100 -0.707114
vn 0.000000 -0.707100 -0.707114
vn 0.000000 -0.707100 -0.707114
vn -1.000000 -0.000480 -0.000110
vn -1.000000 -0.000480 -0.000110
vn -1.000000 -0.000480 -0.000110
vn -1.000000 -0.000480 -0.000110
vn 0.000000 -0.009143 0.999958
vn 0.000000 -0.009143 0.999958
vn 0.000000 -0.009143 0.999958
vn 0.000000 -0.009143 0.999958
vn -0.577341 -0.577357 0.577353
vn -0.577341 -0.577357 0.577353
vn -0.577341 -0.577357 0.577353
vn -0.713256 -0.007176 -0.700867
vn -0.713256 -0.007176 -0.700867
vn -0.713256 -0.007176 -0.700867
vn -0.713256 -0.007176 -0.700867
vn -0.577341 -0.577357 -0.577353
vn -0.577341 -0.577357 -0.577353
vn -0.577341 -0.577357 -0.577353
vn -0.607605 -0.010514 0.794170
vn -0.607605 -0.010514 0.794170
vn -0.607605 -0.010514 0.794170
vn -0.607605 -0.010514 0.794170
vn 0.000000 -0.998799 0.048995
vn 0.000000 -0.998799 0.048995
vn 0.000000 -0.998799 0.048995
vn 0.000000 -0.998799 0.048995
vn 0.478368 0.026994 -0.877744
vn 0.478368 0.026994 -0.877744
vn 0.478368 0.026994 -0.877744
vn -0.820910 -0.006837 0.571017
vn -0.820910 -0.006837 0.571017
vn -0.820910 -0.006837 0.571017
vn 0.000000 0.004980 0.999988
vn 0.000000 0.004980 0.999988
vn 0.000000 0.004980 0.999988
vn 0.000000 0.004980 0.999988
vn 0.999790 0.020498 0.000000
vn 0.999790 0.020498 0.000000
vn 0.999790 0.020498 0.000000
vn 0.999790 0.020498 0.000000
vn 0.000000 0.027692 -0.999617
vn 0.000000 0.027692 -0.999617
vn 0.000000 0.027692 -0.999617
vn 0.000000 0.027692 -0.999617
vn 0.000000 0.009826 0.999952
vn 0.000000 0.009826 0.999952
vn 0.000000 0.009826 0.999952
vn 0.000000 0.009826 0.999952
vn 0.000000 0.018105 -0.999836
vn 0.000000 0.018105 -0.999836
vn 0.000000 0.018105 -0.999836
vn 0.000000 0.018105 -0.999836
vn 0.662577 0.722901 0.195976
vn 0.662577 0.722901 0.195976
vn 0.662577 0.722901 0.195976
vn 0.662577 0.722901 0.195976
vn 0.523604 0.617403 -0.587071
vn 0.523604 0.617403 -0.587071
vn 0.523604 0.617403 -0.587071
vn 0.523604 0.617403 -0.587071
vn 0.999966 -0.008305 -0.000110
vn 0.999966 -0.008305 -0.000110
vn 0.999966 -0.008305 -0.000110
vn 0.999966 -0.008305 -0.000110
vn 0.707098 -0.707116 0.000000
vn 0.707098 -0.707116 0.000000
vn 0.707098 -0.707116 0.000000
vn 0.707098 -0.707116 0.000000
vn 0.577348 -0.577342 0.577361
vn 0.577348 -0.577342 0.577361
vn 0.577348 -0.577342 0.577361
vn 0.659483 -0.010037 -0.751653
vn 0.659483 -0.010037 -0.751653
vn 0.659483 -0.010037 -0.751653
vn 0.659483 -0.010037 -0.751653
vn 0.577348 -0.577342 -0.577361
vn 0.577348 -0.577342 -0.577361
vn 0.577348 -0.577342 -0.577361
vn 0.557740 -0.013308 0.829909
vn 0.557740 -0.013308 0.829909
vn 0.557740 -0.013308 0.829909
vn 0.557740 -0.013308 0.829909
vn -0.478495 0.026993 -0.877675
vn -0.478495 0.026993 -0.877675
vn -0.478495 0.026993 -0.877675
vn 0.820908 -0.006833 0.571019
vn 0.820908 -0.006833 0.571019
vn 0.820908 -0.006833 0.571019
vn -0.999790 0.020494 0.000000
vn -0.999790 0.020494 0.000000
vn -0.999790 0.020494 0.000000
vn -0.999790 0.020494 0.000000
vn 0.987862 0.155211 -0.006100
vn 0.987863 0.155211 -0.006100
vn 0.987863 0.155211 -0.006100
vn 0.987863 0.155211 -0.006100
vn -0.925191 0.379502 0.000000
vn -0.925191 0.379502 0.000000
vn -0.925191 0.379502 0.000000
vn -0.925191 0.379502 0.000000
vn -0.376425 0.926307 -0.016136
vn -0.376425 0.926307 -0.016136
vn -0.376425 0.926307 -0.016136
vn -0.376425 0.926307 -0.016136
vn -0.277030 0.868841 -0.410329
vn -0.277030 0.868841 -0.410329
vn -0.277030 0.868841 -0.410329
vn -0.277030 0.868841 -0.410329
vn 0.000000 1.000000 0.000000
vn 0.000000 1.000000 0.000000
vn 0.000000 1.000000 0.000000
vn 0.000000 1.000000 0.000000
vn 0.000000 -1.000000 0.000000
vn 0.000000 -1.000000 0.000000
vn 0.000000 -1.000000 0.000000
vn 0.000000 -1.000000 0.000000
vn 0.321779 0.946815 0.000049
vn 0.321779 0.946815 0.000049
vn 0.321779 0.946815 0.000049
vn 0.321779 0.946815 0.000049
vn -0.312788 -0.949823 0.000000
vn -0.312788 -0.949823 0.000000
vn -0.312788 -0.949823 0.000000
vn -0.312788 -0.949823 0.000000
vn 0.055982 0.149113 -0.987234
vn 0.055983 0.149113 -0.987234
vn 0.055982 0.149113 -0.987234
vn 0.055982 0.149113 -0.987234
vn -0.987863 0.155211 -0.006100
vn -0.987862 0.155211 -0.006100
vn -0.987862 0.155211 -0.006100
vn -0.987862 0.155211 -0.006100
vn -0.061960 -0.175683 0.982495
vn -0.061960 -0.175683 0.982495
vn -0.061960 -0.175683 0.982495
vn -0.061960 -0.175683 0.982495
vn -0.995297 0.096405 -0.009472
vn -0.995297 0.096405 -0.009472
vn -0.995297 0.096405 -0.009472
vn -0.995297 0.096405 -0.009472
vn 0.000000 -0.998717 -0.050648
vn 0.000000 -0.998717 -0.050648
vn 0.000000 -0.998717 -0.050648
vn 0.000000 -0.998717 -0.050648
vn 0.995297 0.096405 -0.009472
vn 0.995297 0.096405 -0.009472
vn 0.995297 0.096405 -0.009472
vn 0.995297 0.096405 -0.009472
vn 0.000000 0.999370 0.035485
vn 0.000000 0.999370 0.035485
vn 0.000000 0.999370 0.035485
vn 0.000000 0.999370 0.035485
vn 0.694797 0.719206 0.000139
vn 0.694797 0.719206 0.000139
vn 0.694797 0.719206 0.000139
vn 0.694797 0.719206 0.000139
s off
g box05
usemtl initialShadingGroup
f 13/10/1 25/32/2 24/71/3 12/70/4
f 17/4/5 15/7/6 28/57/7 31/25/8
f 19/5/9 11/8/10 23/29/11 33/26/12
f 20/2/13 9/6/14 15/59/15 18/60/16
f 9/6/17 19/5/18 33/26/19 21/30/20
f 18/61/21 16/62/22 14/1/23 20/2/24
f 13/10/25 17/4/26 31/25/27 25/32/28
f 18/3/29 15/7/30 17/4/31
f 14/1/32 11/8/33 19/5/34 20/2/35
f 9/6/36 20/2/37 19/5/38
f 13/10/39 16/9/40 18/3/41 17/4/42
f 38/52/43 8/16/44 2/73/45 39/74/46
f 7/15/47 8/16/48 3/13/49
f 4/14/50 5/11/51 6/12/52
f 4/14/53 6/12/54 35/37/55 37/36/56
f 6/12/57 5/11/58 7/15/59 3/13/60
f 3/49/61 8/16/62 38/52/63 42/53/64
f 1/47/65 36/55/66 22/56/67 10/46/68
f 39/51/69 2/50/70 12/70/71 24/71/72
f 5/19/73 4/20/74 11/8/75 14/1/76
f 8/18/77 7/21/78 16/9/79 13/10/80
f 34/23/81 27/22/82 30/31/83 32/24/84
f 21/27/85 34/23/86 32/24/87 28/28/88
f 32/24/89 31/25/90 28/28/91
f 23/29/92 27/22/93 34/23/94 33/26/95
f 21/30/96 33/26/97 34/23/98
f 30/31/99 25/32/100 31/25/101 32/24/102
f 38/39/103 44/38/104 42/35/105
f 40/33/106 37/36/107 35/37/108
f 40/33/109 35/34/110 42/35/111 44/38/112
f 25/32/113 38/41/114 39/75/115 24/71/116
f 41/42/117 43/63/118 29/65/119 26/64/120
f 37/45/121 40/43/122 27/22/123 23/29/124
f 44/44/125 38/41/126 25/32/127 30/31/128
f 35/37/129 6/12/130 3/49/131 42/53/132
f 9/6/133 21/30/134 28/58/135 15/59/136
f 26/64/137 29/65/138 30/31/139 27/22/140
f 43/67/141 41/68/142 40/33/143 44/38/144
f 27/22/145 40/43/146 41/69/147 26/64/148
f 8/18/149 13/10/150 12/70/151 2/72/152
f 44/44/153 30/31/154 29/65/155 43/66/156
f 1/17/157 10/46/158 11/8/159 4/20/160
f 4/14/161 37/36/162 36/54/163 1/48/164
f 22/56/165 36/40/166 37/45/167 23/29/168
f 23/29/169 11/8/170 10/46/171 22/56/172
f 7/76/173 5/77/174 14/78/175 16/79/176
