# This file uses centimeters as units for non-parametric coordinates.

mtllib Painting.mtl
g default
v 173.924438 135.401367 -99.355072
v 287.490936 135.401367 -99.355072
v 287.490936 204.641251 -99.355064
v 173.924438 204.641251 -99.355064
v 184.274185 144.151474 -99.376495
v 277.141266 144.151474 -99.376495
v 277.141266 195.891159 -99.376503
v 184.274185 195.891159 -99.376503
v 184.274185 144.151459 -99.927612
v 277.141266 144.151459 -99.927612
v 277.141266 195.891144 -99.927612
v 184.274185 195.891144 -99.927612
v 284.683380 202.877167 -99.182022
v 284.870270 203.018738 -99.028618
v 284.605988 203.283112 -99.028618
v 284.464417 203.096161 -99.182030
v 176.615814 203.096130 -99.182030
v 176.474258 203.283051 -99.028618
v 176.209900 203.018677 -99.028618
v 176.396820 202.877136 -99.182030
v 176.396805 136.973145 -99.182022
v 176.209930 136.831635 -99.028625
v 176.474258 136.567261 -99.028610
v 176.615814 136.754181 -99.182037
v 284.464386 136.754181 -99.182030
v 284.605957 136.567230 -99.028618
v 284.870270 136.831573 -99.028618
v 284.683350 136.973175 -99.182022
v 288.264404 206.896103 -99.182037
v 288.032104 206.709198 -99.028618
v 288.296448 206.444855 -99.028618
v 288.483398 206.677109 -99.182037
v 172.596817 206.677109 -99.182037
v 172.783737 206.444855 -99.028618
v 173.048141 206.709229 -99.028618
v 172.815842 206.896103 -99.182037
v 172.815857 132.954147 -99.182037
v 173.048141 133.141083 -99.028625
v 172.783752 133.405457 -99.028610
v 172.596832 133.173157 -99.182037
v 288.483398 133.173187 -99.182037
v 288.296448 133.405487 -99.028618
v 288.032104 133.141083 -99.028618
v 288.264404 132.954147 -99.182037
v 288.032074 206.709137 -100.018562
v 288.264313 206.896088 -99.865158
v 288.483307 206.677094 -99.865158
v 288.296387 206.444824 -100.018562
v 172.783859 206.444824 -100.018562
v 172.596909 206.677124 -99.865150
v 172.815872 206.896088 -99.865150
v 173.048157 206.709137 -100.018562
v 173.048203 133.141144 -100.018555
v 172.815887 132.954254 -99.865143
v 172.596893 133.173218 -99.865143
v 172.783890 133.405518 -100.018555
v 288.296417 133.405487 -100.018562
v 288.483307 133.173218 -99.865143
v 288.264343 132.954224 -99.865150
v 288.032013 133.141144 -100.018562
v 284.464417 203.096161 -99.865150
v 284.605988 203.283112 -100.018562
v 284.870270 203.018738 -100.018562
v 284.683380 202.877167 -99.865143
v 176.396820 202.877136 -99.865150
v 176.209900 203.018677 -100.018562
v 176.474258 203.283051 -100.018562
v 176.615814 203.096130 -99.865150
v 176.615814 136.754181 -99.865143
v 176.474258 136.567261 -100.018555
v 176.209930 136.831635 -100.018570
v 176.396805 136.973145 -99.865143
v 284.683350 136.973175 -99.865143
v 284.870270 136.831573 -100.018562
v 284.605957 136.567230 -100.018562
v 284.464386 136.754181 -99.865150
vt 0.000000 0.000000
vt 1.000000 0.000000
vt 1.000000 1.000000
vt 0.000000 1.000000
vt 0.000000 0.000000
vt 1.000000 0.000000
vt 1.000000 1.000000
vt 0.000000 1.000000
vt 0.000000 0.000000
vt 1.000000 0.000000
vt 1.000000 1.000000
vt 0.000000 1.000000
vt 0.000000 0.038743
vt 0.000506 0.038743
vt 0.000506 0.211257
vt 0.000000 0.211257
vt 0.999004 0.987703
vt 0.999175 1.000000
vt 0.750825 0.999999
vt 0.750894 0.987703
vt 0.000570 0.987701
vt 0.000000 1.000000
vt 0.000000 0.779621
vt 0.000570 0.762298
vt 0.000505 0.999999
vt 0.249390 0.987704
vt 0.249494 1.000000
vt 0.249494 0.038743
vt 0.250825 0.038743
vt 0.250825 0.211257
vt 0.249494 0.211257
vt 0.250894 0.987702
vt 0.249390 0.762298
vt 0.250894 0.762297
vt 0.250826 1.000000
vt 0.499004 0.987703
vt 0.499175 0.999999
vt 0.499175 0.038743
vt 0.500506 0.038743
vt 0.500506 0.211257
vt 0.499175 0.211257
vt 0.500570 0.987703
vt 0.499004 0.762299
vt 0.500570 0.762298
vt 0.500507 1.000000
vt 0.749390 0.987704
vt 0.749494 1.000000
vt 0.749494 0.038743
vt 0.750825 0.038743
vt 0.750825 0.211257
vt 0.749494 0.211257
vt 0.749390 0.762299
vt 0.750894 0.762296
vt 0.000472 0.711255
vt 0.000000 0.711253
vt 0.000000 0.538741
vt 0.000472 0.538743
vt 0.249528 0.711255
vt 0.999260 0.711255
vt 0.999004 0.762296
vt 0.750740 0.711255
vt 0.250741 0.711255
vt 0.249528 0.538743
vt 0.250740 0.538743
vt 0.499260 0.711255
vt 0.500472 0.711255
vt 0.499260 0.538743
vt 0.500472 0.538743
vt 0.749528 0.711255
vt 0.749528 0.538743
vt 0.750740 0.538743
vt 0.000610 0.487703
vt 0.000000 0.469775
vt 0.000000 0.250000
vt 0.000610 0.262300
vt 0.249430 0.487701
vt 0.999106 0.487702
vt 0.999260 0.538743
vt 0.750996 0.487703
vt 0.250996 0.487699
vt 0.249430 0.262296
vt 0.250996 0.262298
vt 0.499106 0.487699
vt 0.500610 0.487702
vt 0.499106 0.262298
vt 0.500610 0.262297
vt 0.749430 0.487702
vt 0.749430 0.262296
vt 0.750996 0.262297
vt 0.999175 0.211257
vt 0.999106 0.262297
vt 0.999175 0.038743
vt 0.000000 1.000000
vt 0.250000 1.000000
vt 0.500000 1.000000
vt 0.750000 1.000000
vt 0.000000 0.764382
vt 0.000403 0.500000
vt 0.000000 0.250000
vn 0.000000 0.000000 1.000000
vn 0.000000 0.000000 1.000000
vn 0.000000 0.000000 1.000000
vn 0.000000 0.000000 1.000000
vn 0.000956 0.001318 0.999999
vn -0.000956 0.001318 0.999999
vn -0.000812 0.001488 0.999999
vn 0.000812 0.001488 0.999999
vn -0.000956 -0.001319 0.999999
vn -0.000812 -0.001489 0.999999
vn 0.000956 -0.001319 0.999999
vn 0.000812 -0.001489 0.999999
vn 0.000000 1.000000 -0.000038
vn 0.000000 1.000000 -0.000038
vn 0.000000 1.000000 -0.000038
vn 0.000000 1.000000 -0.000038
vn -1.000000 0.000001 0.000000
vn -1.000000 0.000001 0.000000
vn -1.000000 0.000001 0.000000
vn -1.000000 0.000001 0.000000
vn 0.000000 -1.000000 0.000038
vn 0.000000 -1.000000 0.000038
vn 0.000000 -1.000000 0.000038
vn 0.000000 -1.000000 0.000038
vn 1.000000 0.000000 0.000000
vn 1.000000 0.000000 0.000000
vn 1.000000 0.000000 0.000000
vn 1.000000 0.000000 0.000000
vn -0.707147 -0.707066 0.000000
vn -0.707147 -0.707066 0.000000
vn -0.707147 -0.707066 0.000000
vn -0.707147 -0.707066 0.000000
vn -0.634437 0.000000 0.772974
vn -0.634437 0.000000 0.772974
vn -0.634437 0.000000 0.772974
vn -0.634437 0.000000 0.772974
vn 0.000000 0.000000 1.000000
vn 0.000000 0.000000 1.000000
vn 0.000000 0.000000 1.000000
vn 0.000000 0.000000 1.000000
vn 0.000000 -0.634346 0.773050
vn 0.000000 -0.634346 0.773050
vn 0.000000 -0.634346 0.773050
vn 0.000000 -0.634346 0.773050
vn 0.707093 -0.707120 0.000000
vn 0.707093 -0.707120 0.000000
vn 0.707093 -0.707120 0.000000
vn 0.707093 -0.707120 0.000000
vn 0.000003 0.000000 1.000000
vn 0.000000 0.000000 1.000000
vn 0.000000 0.000000 1.000000
vn 0.000003 0.000000 1.000000
vn 0.634435 0.000000 0.772976
vn 0.634435 0.000000 0.772976
vn 0.634435 0.000000 0.772976
vn 0.634435 0.000000 0.772976
vn 0.707021 0.707192 0.000000
vn 0.707021 0.707193 0.000000
vn 0.707021 0.707192 0.000000
vn 0.707021 0.707192 0.000000
vn 0.000000 -0.000002 1.000000
vn 0.000003 0.000000 1.000000
vn 0.000003 0.000000 1.000000
vn 0.000000 -0.000002 1.000000
vn 0.000000 0.634401 0.773004
vn 0.000000 0.634401 0.773004
vn 0.000000 0.634401 0.773004
vn 0.000000 0.634401 0.773004
vn -0.707147 0.707066 0.000000
vn -0.707147 0.707066 0.000000
vn -0.707147 0.707066 0.000000
vn -0.707147 0.707066 0.000000
vn 0.000000 0.000000 1.000000
vn 0.000000 -0.000002 1.000000
vn 0.000000 -0.000002 1.000000
vn 0.000000 0.000000 1.000000
vn 0.707076 0.707138 -0.000099
vn 0.707076 0.707137 -0.000099
vn 0.707076 0.707138 -0.000099
vn 0.707076 0.707137 -0.000099
vn 0.000000 0.634526 0.772902
vn 0.000000 0.634526 0.772902
vn 0.000000 0.634526 0.772902
vn 0.000000 0.634526 0.772902
vn 0.634373 0.000000 0.773027
vn 0.634373 0.000000 0.773027
vn 0.634373 0.000000 0.773027
vn 0.634373 0.000000 0.773027
vn -0.707081 0.707133 -0.000068
vn -0.707081 0.707133 -0.000068
vn -0.707081 0.707133 -0.000068
vn -0.707081 0.707133 -0.000068
vn -0.634451 -0.000000 0.772963
vn -0.634451 -0.000000 0.772963
vn -0.634451 -0.000000 0.772963
vn -0.634451 -0.000000 0.772963
vn -0.707072 -0.707141 -0.000133
vn -0.707072 -0.707141 -0.000133
vn -0.707072 -0.707141 -0.000133
vn -0.707072 -0.707141 -0.000133
vn 0.000000 -0.634396 0.773008
vn 0.000000 -0.634396 0.773008
vn 0.000000 -0.634396 0.773008
vn 0.000000 -0.634396 0.773008
vn 0.707213 -0.707000 -0.000138
vn 0.707213 -0.707000 -0.000138
vn 0.707213 -0.707000 -0.000138
vn 0.707213 -0.707000 -0.000138
vn 0.000000 0.000000 -1.000000
vn -0.000001 0.000000 -1.000000
vn -0.000001 0.000000 -1.000000
vn 0.000000 0.000000 -1.000000
vn -0.000000 0.634360 -0.773038
vn -0.000000 0.634360 -0.773038
vn -0.000000 0.634360 -0.773038
vn -0.000000 0.634360 -0.773038
vn 0.634450 0.000000 -0.772964
vn 0.634450 0.000000 -0.772964
vn 0.634450 0.000000 -0.772964
vn 0.634450 0.000000 -0.772964
vn -0.000004 -0.000000 -1.000000
vn 0.000000 0.000000 -1.000000
vn 0.000000 0.000000 -1.000000
vn -0.000004 -0.000000 -1.000000
vn -0.634294 -0.000000 -0.773092
vn -0.634294 -0.000000 -0.773092
vn -0.634294 -0.000000 -0.773092
vn -0.634294 -0.000000 -0.773092
vn 0.000000 -0.000000 -1.000000
vn -0.000004 -0.000000 -1.000000
vn -0.000004 -0.000000 -1.000000
vn -0.000000 -0.000000 -1.000000
vn -0.000000 -0.634438 -0.772974
vn -0.000000 -0.634438 -0.772974
vn -0.000000 -0.634438 -0.772974
vn -0.000000 -0.634438 -0.772974
vn -0.000001 0.000000 -1.000000
vn -0.000000 0.000000 -1.000000
vn -0.000000 0.000000 -1.000000
vn -0.000001 0.000000 -1.000000
vn 0.000000 -0.634346 -0.773050
vn 0.000000 -0.634346 -0.773050
vn 0.000000 -0.634346 -0.773050
vn 0.000000 -0.634346 -0.773050
vn -0.634456 0.000000 -0.772959
vn -0.634456 0.000000 -0.772959
vn -0.634456 0.000000 -0.772959
vn -0.634456 0.000000 -0.772959
vn 0.634490 0.000000 -0.772931
vn 0.634490 0.000000 -0.772931
vn 0.634490 0.000000 -0.772931
vn 0.634490 0.000000 -0.772931
vn 0.000000 0.634382 -0.773020
vn 0.000000 0.634382 -0.773020
vn 0.000000 0.634382 -0.773020
vn 0.000000 0.634382 -0.773020
vn -0.000000 1.000000 -0.000019
vn -0.000000 1.000000 -0.000019
vn -0.000000 1.000000 -0.000019
vn -0.000000 1.000000 -0.000019
vn -1.000000 -0.000000 -0.000112
vn -1.000000 -0.000000 -0.000112
vn -1.000000 -0.000000 -0.000112
vn -1.000000 -0.000000 -0.000112
vn -0.000000 -1.000000 -0.000128
vn -0.000000 -1.000000 -0.000128
vn -0.000000 -1.000000 -0.000128
vn -0.000000 -1.000000 -0.000128
vn 1.000000 -0.000000 -0.000134
vn 1.000000 -0.000000 -0.000134
vn 1.000000 -0.000000 -0.000134
vn 1.000000 -0.000000 -0.000134
vn 0.000000 -1.000000 0.000000
vn 0.000000 -1.000000 0.000000
vn 0.000000 -1.000000 0.000000
vn 0.000000 -1.000000 0.000000
vn 1.000000 -0.000000 0.000000
vn 1.000000 -0.000000 0.000000
vn 1.000000 -0.000000 0.000000
vn 1.000000 -0.000000 0.000000
vn 0.000000 1.000000 0.000000
vn 0.000000 1.000000 0.000000
vn 0.000000 1.000000 0.000000
vn 0.000000 1.000000 0.000000
vn -1.000000 0.000000 0.000000
vn -1.000000 0.000000 0.000000
vn -1.000000 0.000000 0.000000
vn -1.000000 0.000000 0.000000
vn -0.389735 -0.389621 0.834447
vn -0.389735 -0.389621 0.834447
vn -0.389735 -0.389621 0.834448
vn -0.389735 -0.389621 0.834448
vn 0.389719 -0.389719 0.834409
vn 0.389718 -0.389718 0.834409
vn 0.389719 -0.389719 0.834409
vn 0.389719 -0.389719 0.834409
vn 0.389764 0.389723 0.834386
vn 0.389764 0.389723 0.834386
vn 0.389764 0.389723 0.834386
vn 0.389764 0.389723 0.834386
vn -0.389679 0.389625 0.834471
vn -0.389679 0.389625 0.834471
vn -0.389679 0.389625 0.834471
vn -0.389679 0.389625 0.834471
vn 0.325028 0.325045 0.888089
vn 0.325028 0.325045 0.888089
vn 0.325029 0.325045 0.888089
vn 0.325028 0.325045 0.888089
vn -0.325009 0.325059 0.888091
vn -0.325009 0.325059 0.888091
vn -0.325009 0.325059 0.888091
vn -0.325009 0.325059 0.888091
vn -0.324990 -0.325040 0.888105
vn -0.324990 -0.325040 0.888105
vn -0.324990 -0.325040 0.888105
vn -0.324990 -0.325040 0.888105
vn 0.325031 -0.324964 0.888118
vn 0.325031 -0.324964 0.888118
vn 0.325031 -0.324964 0.888118
vn 0.325031 -0.324964 0.888118
vn 0.325010 0.325010 -0.888109
vn 0.325010 0.325010 -0.888109
vn 0.325010 0.325010 -0.888109
vn 0.325010 0.325010 -0.888109
vn -0.324989 0.324972 -0.888130
vn -0.324989 0.324972 -0.888130
vn -0.324989 0.324972 -0.888130
vn -0.324989 0.324972 -0.888130
vn -0.324992 -0.324958 -0.888134
vn -0.324992 -0.324958 -0.888134
vn -0.324992 -0.324958 -0.888134
vn -0.324992 -0.324958 -0.888134
vn 0.325026 -0.324976 -0.888115
vn 0.325026 -0.324976 -0.888115
vn 0.325026 -0.324976 -0.888115
vn 0.325026 -0.324976 -0.888115
vn -0.389765 -0.389638 -0.834425
vn -0.389765 -0.389638 -0.834425
vn -0.389765 -0.389638 -0.834425
vn -0.389765 -0.389638 -0.834425
vn 0.389705 -0.389705 -0.834422
vn 0.389705 -0.389705 -0.834422
vn 0.389705 -0.389705 -0.834422
vn 0.389705 -0.389705 -0.834422
vn 0.389778 0.389738 -0.834373
vn 0.389778 0.389738 -0.834373
vn 0.389778 0.389738 -0.834373
vn 0.389778 0.389738 -0.834373
vn -0.389709 0.389643 -0.834449
vn -0.389709 0.389643 -0.834449
vn -0.389709 0.389643 -0.834449
vn -0.389709 0.389643 -0.834449
s off
g env_painting_geo
usemtl initialShadingGroup
f 9/9/1 10/10/2 11/11/3 12/12/4
s 1
f 1/1/5 2/2/6 6/6/7 5/5/8
f 2/2/6 3/3/9 7/7/10 6/6/7
f 3/3/9 4/4/11 8/8/12 7/7/10
f 4/4/11 1/1/5 5/5/8 8/8/12
s off
f 5/5/13 6/6/14 10/10/15 9/9/16
f 6/6/17 7/7/18 11/11/19 10/10/20
f 7/7/21 8/8/22 12/12/23 11/11/24
f 8/8/25 5/5/26 9/9/27 12/12/28
f 13/13/29 16/14/30 61/15/31 64/16/32
f 14/17/33 13/18/34 28/19/35 27/20/36
s 2
f 15/21/37 14/22/38 31/23/39 30/24/40
s off
f 16/25/41 15/21/42 18/26/43 17/27/44
f 17/28/45 20/29/46 65/30/47 68/31/48
s 2
f 19/32/49 18/26/50 35/33/51 34/34/52
s off
f 20/35/53 19/32/54 22/36/55 21/37/56
f 21/38/57 24/39/58 69/40/59 72/41/60
s 2
f 23/42/61 22/36/62 39/43/63 38/44/64
s off
f 24/45/65 23/42/66 26/46/67 25/47/68
f 25/48/69 28/49/70 73/50/71 76/51/72
s 2
f 27/20/73 26/46/74 43/52/75 42/53/76
s off
f 29/54/77 32/55/78 47/56/79 46/57/80
f 30/24/81 29/54/82 36/58/83 35/33/84
f 32/59/85 31/60/86 42/53/87 41/61/88
f 33/62/89 36/58/90 51/63/91 50/64/92
f 34/34/93 33/62/94 40/65/95 39/43/96
f 37/66/97 40/65/98 55/67/99 54/68/100
f 38/44/101 37/66/102 44/69/103 43/52/104
f 41/61/105 44/69/106 59/70/107 58/71/108
s 3
f 45/72/109 48/73/110 63/74/111 62/75/112
s off
f 46/57/113 45/72/114 52/76/115 51/63/116
f 48/77/117 47/78/118 58/71/119 57/79/120
s 3
f 49/80/121 52/76/122 67/81/123 66/82/124
s off
f 50/64/125 49/80/126 56/83/127 55/67/128
s 3
f 53/84/129 56/83/130 71/85/131 70/86/132
s off
f 54/68/133 53/84/134 60/87/135 59/70/136
s 3
f 57/79/137 60/87/138 75/88/139 74/89/140
s off
f 62/75/141 61/15/142 68/31/143 67/81/144
f 64/90/145 63/91/146 74/89/147 73/50/148
f 66/82/149 65/30/150 72/41/151 71/85/152
f 70/86/153 69/40/154 76/51/155 75/88/156
s 2
f 18/26/50 15/21/37 30/24/40 35/33/51
f 22/36/62 19/32/49 34/34/52 39/43/63
f 26/46/74 23/42/61 38/44/64 43/52/75
f 14/17/38 27/20/73 42/53/76 31/60/39
s off
f 36/58/157 29/54/158 46/57/159 51/63/160
f 40/65/161 33/62/162 50/64/163 55/67/164
f 44/69/165 37/66/166 54/68/167 59/70/168
f 32/59/169 41/61/170 58/71/171 47/78/172
s 3
f 52/76/122 45/72/109 62/75/112 67/81/123
f 56/83/130 49/80/121 66/82/124 71/85/131
f 60/87/138 53/84/129 70/86/132 75/88/139
f 48/77/110 57/79/137 74/89/140 63/91/111
s off
f 68/31/173 61/15/174 16/14/175 17/28/176
f 72/41/177 65/30/178 20/29/179 21/38/180
f 76/51/181 69/40/182 24/39/183 25/48/184
f 64/90/185 73/50/186 28/49/187 13/92/188
f 13/93/189 14/22/190 15/21/191 16/25/192
f 17/27/193 18/26/194 19/32/195 20/94/196
f 21/37/197 22/36/198 23/42/199 24/95/200
f 25/47/201 26/46/202 27/20/203 28/96/204
f 29/54/205 30/24/206 31/23/207 32/97/208
f 33/62/209 34/34/210 35/33/211 36/58/212
f 37/66/213 38/44/214 39/43/215 40/65/216
f 41/61/217 42/53/218 43/52/219 44/69/220
f 45/72/221 46/57/222 47/56/223 48/98/224
f 49/80/225 50/64/226 51/63/227 52/76/228
f 53/84/229 54/68/230 55/67/231 56/83/232
f 57/79/233 58/71/234 59/70/235 60/87/236
f 61/15/237 62/75/238 63/74/239 64/99/240
f 65/30/241 66/82/242 67/81/243 68/31/244
f 69/40/245 70/86/246 71/85/247 72/41/248
f 73/50/249 74/89/250 75/88/251 76/51/252
